<svg width="379" height="96" viewBox="0 0 379 96" fill="none" xmlns="http://www.w3.org/2000/svg">
<path d="M67.8542 32.75V48.2708C66.0052 56.7604 61.9583 63.1823 55.7083 67.5417C49.4688 71.9063 42.5104 74.0833 34.8333 74.0833C25.1771 74.0833 16.9583 70.474 10.1667 63.25C3.38542 56.0313 0 47.3073 0 37.0833C0 26.6823 3.31771 17.9063 9.95833 10.75C16.5938 3.58333 24.8854 0 34.8333 0C46.4427 0 55.6302 4.07292 62.3958 12.2083L51.7292 23.9167C47.9219 17.7917 42.6094 14.7292 35.7917 14.7292C30.7604 14.7292 26.4688 16.9115 22.9167 21.2708C19.3594 25.6354 17.5833 30.9063 17.5833 37.0833C17.5833 43.1563 19.3594 48.3438 22.9167 52.6458C26.4688 56.9531 30.7604 59.1042 35.7917 59.1042C39.9427 59.1042 43.5625 57.849 46.6458 55.3333C49.7396 52.8229 51.2917 49.4792 51.2917 45.3125H34.8333V32.75H67.8542Z" fill="#A64D79"/>
<path d="M66.8998 72.7917V28.3334H82.2332V34.7501H82.3998C82.5248 34.5157 82.7123 34.224 82.9623 33.8751C83.2228 33.5313 83.7853 32.9272 84.6498 32.0626C85.5248 31.1876 86.4467 30.4115 87.4207 29.7292C88.4051 29.0365 89.6759 28.4167 91.2332 27.8751C92.8009 27.323 94.3894 27.0417 96.004 27.0417C97.6811 27.0417 99.3269 27.2709 100.942 27.7292C102.567 28.1876 103.754 28.6459 104.504 29.1042L105.712 29.8126L99.2957 42.8126C97.3894 41.1876 94.7384 40.3751 91.3373 40.3751C89.4884 40.3751 87.8998 40.7865 86.5665 41.6042C85.2332 42.4115 84.2853 43.3907 83.7332 44.5417C83.1915 45.698 82.8009 46.6824 82.5665 47.5001C82.3425 48.3074 82.2332 48.9376 82.2332 49.3959V72.7917H66.8998Z" fill="#A64D79"/>
<path d="M106.096 67.5001C101.163 63.1147 98.6997 57.4792 98.6997 50.6042C98.6997 43.7292 101.267 38.0834 106.408 33.6667C111.543 29.2501 117.898 27.0417 125.471 27.0417C132.929 27.0417 139.21 29.2657 144.325 33.7084C149.434 38.1563 151.991 43.7865 151.991 50.6042C151.991 57.4272 149.491 63.0417 144.491 67.4584C139.491 71.8751 133.148 74.0834 125.471 74.0834C117.497 74.0834 111.038 71.8907 106.096 67.5001ZM117.971 43.0834C115.981 45.0417 114.991 47.5574 114.991 50.6251C114.991 53.6824 115.939 56.1772 117.846 58.1042C119.747 60.0365 122.262 61.0001 125.387 61.0001C128.387 61.0001 130.851 60.0209 132.783 58.0626C134.726 56.0938 135.7 53.6042 135.7 50.6042C135.7 47.5522 134.7 45.0417 132.7 43.0834C130.71 41.1147 128.273 40.1251 125.387 40.1251C122.439 40.1251 119.971 41.1147 117.971 43.0834Z" fill="#A64D79"/>
<path d="M165.5 28.3333V49.4791C165.5 53.8697 166.166 56.9895 167.5 58.8333C168.833 60.6822 171.083 61.6041 174.25 61.6041C177.427 61.6041 179.687 60.6822 181.02 58.8333C182.354 56.9895 183.02 53.8697 183.02 49.4791V28.3333H198.354V53.2083C198.354 60.5989 196.427 65.927 192.583 69.1874C188.75 72.453 182.635 74.0833 174.25 74.0833C165.875 74.0833 159.76 72.453 155.916 69.1874C152.083 65.927 150.166 60.5989 150.166 53.2083V28.3333H165.5Z" fill="#A64D79"/>
<path d="M245.491 33.8542C249.658 38.3855 251.741 43.9376 251.741 50.5209C251.741 57.1042 249.658 62.6824 245.491 67.2501C241.335 71.8074 236.054 74.0834 229.637 74.0834C223.731 74.0834 218.877 72.2397 215.075 68.5417V95.3334H199.741V28.3334H214.908V33.3542H215.075C218.877 29.1459 223.731 27.0417 229.637 27.0417C236.054 27.0417 241.335 29.3126 245.491 33.8542ZM232.45 58.0626C234.45 56.0938 235.45 53.5782 235.45 50.5209C235.45 47.4532 234.491 44.9532 232.575 43.0209C230.668 41.0938 228.158 40.1251 225.033 40.1251C222.033 40.1251 219.559 41.1147 217.616 43.0834C215.684 45.0417 214.72 47.5209 214.72 50.5209C214.72 53.5782 215.71 56.0938 217.7 58.0626C219.7 60.0209 222.142 61.0001 225.033 61.0001C227.976 61.0001 230.45 60.0209 232.45 58.0626Z" fill="#A64D79"/>
<path d="M295.76 52.6876H263.51C263.51 55.8126 264.515 58.1251 266.531 59.6251C268.557 61.1251 270.76 61.8751 273.135 61.8751C275.619 61.8751 277.583 61.5418 279.031 60.8751C280.474 60.2084 282.119 58.8959 283.968 56.9376L295.052 62.4792C290.437 70.2188 282.76 74.0834 272.01 74.0834C265.302 74.0834 259.552 71.7917 254.76 67.2084C249.968 62.6147 247.573 57.0782 247.573 50.6042C247.573 44.1355 249.968 38.5938 254.76 33.9792C259.552 29.3542 265.302 27.0417 272.01 27.0417C279.052 27.0417 284.781 29.0782 289.198 33.1459C293.625 37.2188 295.843 43.0365 295.843 50.6042C295.843 51.6459 295.812 52.3438 295.76 52.6876ZM263.948 44.1876H280.843C280.494 41.8855 279.583 40.1147 278.114 38.8751C276.64 37.6251 274.75 37.0001 272.448 37.0001C269.906 37.0001 267.875 37.6667 266.364 39.0001C264.864 40.323 264.057 42.0522 263.948 44.1876Z" fill="#A64D79"/>
<path d="M294.888 72.7917V28.3334H310.221V34.7501H310.388C310.513 34.5157 310.701 34.224 310.951 33.8751C311.211 33.5313 311.773 32.9272 312.638 32.0626C313.513 31.1876 314.435 30.4115 315.409 29.7292C316.393 29.0365 317.664 28.4167 319.221 27.8751C320.789 27.323 322.378 27.0417 323.992 27.0417C325.669 27.0417 327.315 27.2709 328.93 27.7292C330.555 28.1876 331.742 28.6459 332.492 29.1042L333.701 29.8126L327.284 42.8126C325.378 41.1876 322.727 40.3751 319.326 40.3751C317.477 40.3751 315.888 40.7865 314.555 41.6042C313.221 42.4115 312.273 43.3907 311.721 44.5417C311.18 45.698 310.789 46.6824 310.555 47.5001C310.331 48.3074 310.221 48.9376 310.221 49.3959V72.7917H294.888Z" fill="#A64D79"/>
<path d="M332.917 67.2917C328.761 62.7501 326.688 57.1876 326.688 50.6042C326.688 44.0209 328.761 38.4532 332.917 33.8959C337.084 29.3282 342.365 27.0417 348.771 27.0417C354.672 27.0417 359.526 28.8907 363.334 32.5834V28.3334H378.688V72.7917H363.521V67.7709H363.334C359.526 71.9792 354.672 74.0834 348.771 74.0834C342.365 74.0834 337.084 71.823 332.917 67.2917ZM345.959 43.0834C343.969 45.0417 342.98 47.5574 342.98 50.6251C342.98 53.6824 343.927 56.1772 345.834 58.1042C347.735 60.0365 350.25 61.0001 353.375 61.0001C356.375 61.0001 358.839 60.0209 360.771 58.0626C362.714 56.0938 363.688 53.6042 363.688 50.6042C363.688 47.5522 362.688 45.0417 360.688 43.0834C358.698 41.1147 356.261 40.1251 353.375 40.1251C350.427 40.1251 347.959 41.1147 345.959 43.0834Z" fill="#A64D79"/>
</svg>
