<svg width="299" height="99" viewBox="0 0 299 99" fill="none" xmlns="http://www.w3.org/2000/svg">
<path d="M54.0558 26.1538V38.383C52.5975 45.0653 49.41 50.1278 44.4933 53.5705C39.587 57.0028 34.1079 58.7163 28.0558 58.7163C20.4412 58.7163 13.962 55.8778 8.61829 50.1955C3.26933 44.5028 0.597458 37.6278 0.597458 29.5705C0.597458 21.3778 3.21204 14.4611 8.45162 8.82048C13.686 3.16943 20.2225 0.341309 28.0558 0.341309C37.1912 0.341309 44.4308 3.54964 49.7641 9.96631L41.3683 19.1955C38.3527 14.3621 34.1652 11.9455 28.8058 11.9455C24.8475 11.9455 21.462 13.6694 18.66 17.1121C15.8683 20.5444 14.4725 24.6955 14.4725 29.5705C14.4725 34.3517 15.8683 38.4351 18.66 41.8205C21.462 45.2111 24.8475 46.9038 28.8058 46.9038C32.0818 46.9038 34.936 45.9194 37.3683 43.9455C39.7954 41.9611 41.0141 39.3309 41.0141 36.0496H28.0558V26.1538H54.0558Z" fill="#A64D79"/>
<path d="M53.3125 57.6955V22.6746H65.3959V27.7163H65.5209C65.6146 27.5392 65.7604 27.3153 65.9584 27.0496C66.1667 26.7736 66.6094 26.2944 67.2917 25.6121C67.9844 24.9351 68.7136 24.3205 69.4792 23.7788C70.2552 23.2267 71.2552 22.7319 72.4792 22.2996C73.7136 21.8726 74.9688 21.6538 76.25 21.6538C77.5677 21.6538 78.8594 21.8361 80.125 22.1955C81.4011 22.5601 82.3386 22.9194 82.9375 23.2788L83.8959 23.8413L78.8334 34.0705C77.3334 32.7944 75.2396 32.1538 72.5625 32.1538C71.1042 32.1538 69.8438 32.4767 68.7917 33.1121C67.75 33.7528 67.0104 34.5288 66.5834 35.4455C66.1511 36.3517 65.8438 37.1226 65.6667 37.758C65.4844 38.3986 65.3959 38.8986 65.3959 39.258V57.6955H53.3125Z" fill="#A64D79"/>
<path d="M84.1817 53.5288C80.291 50.0705 78.3483 45.633 78.3483 40.2163C78.3483 34.7996 80.3744 30.3569 84.4317 26.883C88.4837 23.3986 93.4942 21.6538 99.4525 21.6538C105.327 21.6538 110.275 23.4038 114.307 26.9038C118.333 30.4038 120.348 34.8413 120.348 40.2163C120.348 45.5913 118.374 50.0236 114.432 53.508C110.499 56.9819 105.505 58.7163 99.4525 58.7163C93.1712 58.7163 88.0827 56.9871 84.1817 53.5288ZM93.5358 34.2788C91.9629 35.8205 91.1817 37.7996 91.1817 40.2163C91.1817 42.633 91.9317 44.6069 93.4317 46.133C94.9421 47.6486 96.9317 48.4038 99.39 48.4038C101.749 48.4038 103.692 47.633 105.223 46.0913C106.749 44.5392 107.515 42.5809 107.515 40.2163C107.515 37.7996 106.729 35.8205 105.161 34.2788C103.588 32.7371 101.666 31.9663 99.39 31.9663C97.0671 31.9663 95.1192 32.7371 93.5358 34.2788Z" fill="#A64D79"/>
<path d="M130.991 22.6746V39.3204C130.991 42.7944 131.511 45.2579 132.553 46.7162C133.605 48.1641 135.386 48.8829 137.886 48.8829C140.386 48.8829 142.157 48.1641 143.199 46.7162C144.251 45.2579 144.782 42.7944 144.782 39.3204V22.6746H156.866V42.2579C156.866 48.0912 155.35 52.2944 152.324 54.8621C149.293 57.435 144.48 58.7162 137.886 58.7162C131.287 58.7162 126.475 57.435 123.449 54.8621C120.418 52.2944 118.907 48.0912 118.907 42.2579V22.6746H130.991Z" fill="#A64D79"/>
<path d="M194 27.008C197.276 30.5809 198.917 34.9611 198.917 40.1538C198.917 45.3361 197.276 49.7267 194 53.3205C190.719 56.9194 186.552 58.7163 181.5 58.7163C176.859 58.7163 173.042 57.258 170.042 54.3413V75.4455H157.958V22.6746H169.896V26.633H170.042C173.042 23.3153 176.859 21.6538 181.5 21.6538C186.552 21.6538 190.719 23.4403 194 27.008ZM183.729 46.0913C185.297 44.5392 186.083 42.5601 186.083 40.1538C186.083 37.7371 185.323 35.7736 183.812 34.258C182.312 32.7319 180.338 31.9663 177.896 31.9663C175.521 31.9663 173.568 32.7371 172.042 34.2788C170.526 35.8205 169.771 37.7788 169.771 40.1538C169.771 42.5601 170.552 44.5392 172.125 46.0913C173.693 47.633 175.614 48.4038 177.896 48.4038C180.213 48.4038 182.156 47.633 183.729 46.0913Z" fill="#A64D79"/>
<path d="M233.581 41.8621H208.186C208.186 44.3205 208.983 46.1434 210.581 47.3205C212.175 48.5028 213.904 49.0913 215.769 49.0913C217.727 49.0913 219.274 48.8361 220.415 48.3205C221.55 47.7944 222.852 46.7528 224.311 45.1955L233.04 49.5705C229.399 55.6694 223.342 58.7163 214.873 58.7163C209.592 58.7163 205.066 56.9142 201.29 53.2996C197.509 49.6746 195.623 45.3153 195.623 40.2163C195.623 35.1226 197.509 30.7528 201.29 27.1121C205.066 23.4767 209.592 21.6538 214.873 21.6538C220.425 21.6538 224.946 23.258 228.436 26.4663C231.92 29.6746 233.665 34.258 233.665 40.2163C233.665 41.0392 233.634 41.5861 233.581 41.8621ZM208.54 35.1746H221.852C221.571 33.3569 220.852 31.9611 219.686 30.9871C218.529 30.0028 217.045 29.508 215.227 29.508C213.227 29.508 211.628 30.0288 210.436 31.0705C209.253 32.1121 208.623 33.4819 208.54 35.1746Z" fill="#A64D79"/>
<path d="M232.91 57.6955V22.6746H244.993V27.7163H245.118C245.212 27.5392 245.358 27.3153 245.556 27.0496C245.764 26.7736 246.207 26.2944 246.889 25.6121C247.582 24.9351 248.311 24.3205 249.077 23.7788C249.853 23.2267 250.853 22.7319 252.077 22.2996C253.311 21.8726 254.566 21.6538 255.848 21.6538C257.165 21.6538 258.457 21.8361 259.723 22.1955C260.999 22.5601 261.936 22.9194 262.535 23.2788L263.493 23.8413L258.431 34.0705C256.931 32.7944 254.837 32.1538 252.16 32.1538C250.702 32.1538 249.441 32.4767 248.389 33.1121C247.348 33.7528 246.608 34.5288 246.181 35.4455C245.749 36.3517 245.441 37.1226 245.264 37.758C245.082 38.3986 244.993 38.8986 244.993 39.258V57.6955H232.91Z" fill="#A64D79"/>
<path d="M262.863 53.3621C259.581 49.7944 257.946 45.4194 257.946 40.2371C257.946 35.0444 259.581 30.6486 262.863 27.0496C266.139 23.4559 270.305 21.6538 275.363 21.6538C279.998 21.6538 283.826 23.1069 286.842 26.008V22.6746H298.925V57.6955H286.967V53.7371H286.842C283.826 57.0601 279.998 58.7163 275.363 58.7163C270.305 58.7163 266.139 56.9351 262.863 53.3621ZM273.133 34.2788C271.561 35.8205 270.779 37.7996 270.779 40.2163C270.779 42.633 271.529 44.6069 273.029 46.133C274.54 47.6486 276.529 48.4038 278.988 48.4038C281.347 48.4038 283.29 47.633 284.821 46.0913C286.347 44.5392 287.113 42.5809 287.113 40.2163C287.113 37.7996 286.326 35.8205 284.758 34.2788C283.186 32.7371 281.264 31.9663 278.988 31.9663C276.665 31.9663 274.717 32.7371 273.133 34.2788Z" fill="#A64D79"/>
<path d="M79.5276 87.751C79.8609 87.751 80.1422 87.8343 80.3817 88.001C80.6161 88.1676 80.7359 88.3864 80.7359 88.6468C80.7359 88.9541 80.6526 89.1833 80.4859 89.3343C80.3297 89.4906 80.1422 89.5635 79.9234 89.5635C79.8088 89.5635 79.6369 89.5322 79.4026 89.4593C79.1369 89.376 78.9286 89.3343 78.7776 89.3343C78.3869 89.3343 78.0067 89.4749 77.6317 89.751C77.2567 90.0166 76.9494 90.3864 76.7151 90.8551C76.4755 91.3291 76.3609 91.8656 76.3609 92.4593V97.0426C76.3609 97.2926 76.2671 97.5114 76.0901 97.6885C75.9234 97.8708 75.7047 97.9593 75.4442 97.9593C75.1786 97.9593 74.9651 97.876 74.7984 97.7093C74.6317 97.5322 74.5484 97.3083 74.5484 97.0426V88.876C74.5484 88.626 74.6317 88.4176 74.7984 88.251C74.9755 88.0739 75.1942 87.9801 75.4442 87.9801C75.7047 87.9801 75.9234 88.0739 76.0901 88.251C76.2671 88.4176 76.3609 88.626 76.3609 88.876V89.8551C76.6369 89.2301 77.0536 88.7249 77.6109 88.3343C78.1786 87.9489 78.8192 87.751 79.5276 87.751Z" fill="black"/>
<path d="M96.5333 92.5843C96.5177 92.8083 96.4187 93.001 96.2417 93.1676C96.0594 93.3239 95.851 93.3968 95.6167 93.3968H88.9083C88.9917 94.3291 89.3354 95.0791 89.95 95.6468C90.575 96.2041 91.3302 96.4801 92.2208 96.4801C92.8302 96.4801 93.325 96.3916 93.7 96.2093C94.0854 96.0322 94.4292 95.8031 94.7208 95.5218C94.9135 95.4124 95.0958 95.3551 95.2625 95.3551C95.4812 95.3551 95.6635 95.4333 95.8042 95.5843C95.9552 95.7406 96.0333 95.9124 96.0333 96.1051C96.0333 96.3708 95.9083 96.6156 95.6583 96.8343C95.2833 97.2093 94.7885 97.5218 94.1792 97.7718C93.5646 98.0218 92.95 98.1468 92.325 98.1468C91.2937 98.1468 90.3875 97.9333 89.5958 97.501C88.8146 97.0739 88.2104 96.4697 87.7833 95.6885C87.3667 94.9124 87.1583 94.0374 87.1583 93.0635C87.1583 91.9958 87.3719 91.0583 87.8042 90.251C88.2469 89.4489 88.825 88.8291 89.5333 88.3968C90.2521 87.9697 91.0333 87.751 91.8667 87.751C92.6687 87.751 93.4292 87.9593 94.1375 88.376C94.8562 88.7926 95.4344 89.3708 95.8667 90.1051C96.2937 90.8447 96.5177 91.6676 96.5333 92.5843ZM91.8667 89.4176C91.1427 89.4176 90.5177 89.6208 89.9917 90.0218C89.476 90.4281 89.1427 91.0426 88.9917 91.876H94.5958V91.7301C94.5385 91.0531 94.2417 90.4958 93.7 90.0635C93.1583 89.6364 92.5437 89.4176 91.8667 89.4176Z" fill="black"/>
<path d="M112.074 83.855C112.334 83.855 112.553 83.9487 112.719 84.1258C112.896 84.2925 112.99 84.5112 112.99 84.7716V97.0425C112.99 97.2925 112.896 97.5112 112.719 97.6883C112.553 97.8706 112.334 97.9591 112.074 97.9591C111.808 97.9591 111.594 97.8758 111.428 97.7091C111.261 97.5321 111.178 97.3081 111.178 97.0425V96.5008C110.855 96.9591 110.407 97.3498 109.824 97.6675C109.251 97.9852 108.636 98.1466 107.969 98.1466C107.105 98.1466 106.324 97.9279 105.615 97.48C104.917 97.0373 104.37 96.4175 103.969 95.6258C103.563 94.8341 103.365 93.9383 103.365 92.9383C103.365 91.9539 103.558 91.0633 103.949 90.2716C104.35 89.48 104.896 88.8654 105.594 88.4175C106.303 87.9748 107.074 87.7508 107.907 87.7508C108.584 87.7508 109.209 87.8914 109.782 88.1675C110.35 88.4487 110.813 88.8081 111.178 89.2508V84.7716C111.178 84.5112 111.261 84.2925 111.428 84.1258C111.594 83.9487 111.808 83.855 112.074 83.855ZM108.178 96.48C108.771 96.48 109.303 96.3289 109.761 96.0216C110.23 95.7196 110.594 95.3029 110.844 94.7716C111.105 94.23 111.24 93.6206 111.24 92.9383C111.24 92.2873 111.105 91.6883 110.844 91.1466C110.594 90.605 110.23 90.1831 109.761 89.8758C109.303 89.5737 108.771 89.4175 108.178 89.4175C107.579 89.4175 107.042 89.5737 106.574 89.8758C106.115 90.1831 105.751 90.605 105.49 91.1466C105.24 91.6883 105.115 92.2873 105.115 92.9383C105.115 93.6206 105.24 94.23 105.49 94.7716C105.751 95.3029 106.115 95.7196 106.574 96.0216C107.042 96.3289 107.579 96.48 108.178 96.48Z" fill="black"/>
<path d="M129.786 92.5843C129.77 92.8083 129.671 93.001 129.494 93.1676C129.312 93.3239 129.104 93.3968 128.869 93.3968H122.161C122.244 94.3291 122.588 95.0791 123.203 95.6468C123.828 96.2041 124.583 96.4801 125.473 96.4801C126.083 96.4801 126.578 96.3916 126.953 96.2093C127.338 96.0322 127.682 95.8031 127.973 95.5218C128.166 95.4124 128.348 95.3551 128.515 95.3551C128.734 95.3551 128.916 95.4333 129.057 95.5843C129.208 95.7406 129.286 95.9124 129.286 96.1051C129.286 96.3708 129.161 96.6156 128.911 96.8343C128.536 97.2093 128.041 97.5218 127.432 97.7718C126.817 98.0218 126.203 98.1468 125.578 98.1468C124.546 98.1468 123.64 97.9333 122.848 97.501C122.067 97.0739 121.463 96.4697 121.036 95.6885C120.619 94.9124 120.411 94.0374 120.411 93.0635C120.411 91.9958 120.624 91.0583 121.057 90.251C121.499 89.4489 122.078 88.8291 122.786 88.3968C123.505 87.9697 124.286 87.751 125.119 87.751C125.921 87.751 126.682 87.9593 127.39 88.376C128.109 88.7926 128.687 89.3708 129.119 90.1051C129.546 90.8447 129.77 91.6676 129.786 92.5843ZM125.119 89.4176C124.395 89.4176 123.77 89.6208 123.244 90.0218C122.729 90.4281 122.395 91.0426 122.244 91.876H127.848V91.7301C127.791 91.0531 127.494 90.4958 126.953 90.0635C126.411 89.6364 125.796 89.4176 125.119 89.4176Z" fill="black"/>
<path d="M142.305 87.751C144.597 87.751 145.743 89.1208 145.743 91.8551V97.0426C145.743 97.2926 145.649 97.5114 145.472 97.6885C145.305 97.8708 145.087 97.9593 144.826 97.9593C144.576 97.9593 144.357 97.8708 144.18 97.6885C144.014 97.5114 143.93 97.2926 143.93 97.0426V91.876C143.93 91.126 143.753 90.5322 143.409 90.0843C143.076 89.6416 142.519 89.4176 141.743 89.4176C141.227 89.4176 140.764 89.5322 140.347 89.751C139.941 89.9749 139.623 90.2718 139.389 90.6468C139.149 91.0218 139.034 91.4333 139.034 91.876V97.0426C139.034 97.2926 138.941 97.5114 138.764 97.6885C138.597 97.8708 138.378 97.9593 138.118 97.9593C137.852 97.9593 137.639 97.876 137.472 97.7093C137.305 97.5322 137.222 97.3083 137.222 97.0426V88.876C137.222 88.626 137.305 88.4176 137.472 88.251C137.649 88.0739 137.868 87.9801 138.118 87.9801C138.378 87.9801 138.597 88.0739 138.764 88.251C138.941 88.4176 139.034 88.626 139.034 88.876V89.5426C139.368 89.0426 139.826 88.6208 140.409 88.2718C141.003 87.9281 141.639 87.751 142.305 87.751Z" fill="black"/>
<path d="M169.392 87.7925C171.626 87.7925 172.746 89.1831 172.746 91.9591V97.0425C172.746 97.2925 172.652 97.5112 172.475 97.6883C172.309 97.8706 172.09 97.9591 171.829 97.9591C171.579 97.9591 171.361 97.8706 171.184 97.6883C171.017 97.5112 170.934 97.2925 170.934 97.0425V91.9591C170.934 90.3081 170.23 89.48 168.829 89.48C168.079 89.48 167.454 89.7196 166.954 90.1883C166.465 90.6623 166.225 91.2508 166.225 91.9591V97.0425C166.225 97.2925 166.131 97.5112 165.954 97.6883C165.788 97.8706 165.569 97.9591 165.309 97.9591C165.043 97.9591 164.829 97.8758 164.663 97.7091C164.496 97.5321 164.413 97.3081 164.413 97.0425V84.7716C164.413 84.5216 164.496 84.3081 164.663 84.1258C164.84 83.9487 165.059 83.855 165.309 83.855C165.569 83.855 165.788 83.9487 165.954 84.1258C166.131 84.3081 166.225 84.5216 166.225 84.7716V89.5841C166.543 89.0998 166.986 88.6831 167.559 88.3341C168.126 87.9748 168.736 87.7925 169.392 87.7925Z" fill="black"/>
<path d="M182.5 97.0426C182.5 97.2926 182.416 97.5114 182.25 97.6885C182.083 97.8708 181.859 97.9593 181.583 97.9593C181.333 97.9593 181.114 97.8708 180.937 97.6885C180.77 97.5114 180.687 97.2926 180.687 97.0426V88.7926C180.687 88.5426 180.77 88.3291 180.937 88.1468C181.114 87.9697 181.333 87.876 181.583 87.876C181.859 87.876 182.083 87.9697 182.25 88.1468C182.416 88.3291 182.5 88.5426 182.5 88.7926V97.0426ZM181.604 86.626C181.229 86.626 180.958 86.5583 180.791 86.4176C180.635 86.2822 180.562 86.0635 180.562 85.7718V85.4801C180.562 85.1781 180.645 84.9593 180.812 84.8343C180.989 84.6989 181.26 84.626 181.625 84.626C181.968 84.626 182.218 84.6989 182.375 84.8343C182.541 84.9749 182.625 85.1885 182.625 85.4801V85.7718C182.625 86.0791 182.541 86.3031 182.375 86.4385C182.208 86.5635 181.947 86.626 181.604 86.626Z" fill="black"/>
<path d="M192.418 97.0425C192.418 97.2925 192.324 97.5112 192.147 97.6883C191.981 97.8706 191.762 97.9591 191.501 97.9591C191.251 97.9591 191.033 97.8706 190.855 97.6883C190.689 97.5112 190.605 97.2925 190.605 97.0425V84.7716C190.605 84.5216 190.694 84.3081 190.876 84.1258C191.053 83.9487 191.272 83.855 191.522 83.855C191.783 83.855 192.001 83.9487 192.168 84.1258C192.335 84.3081 192.418 84.5216 192.418 84.7716V97.0425Z" fill="black"/>
<path d="M204.895 85.5009C204.478 85.5009 204.165 85.6259 203.957 85.8759C203.759 86.1259 203.665 86.4384 203.665 86.8134V88.1467H205.561C205.811 88.1467 206.009 88.2301 206.165 88.3967C206.332 88.553 206.415 88.7457 206.415 88.9801C206.415 89.2196 206.332 89.4124 206.165 89.5634C206.009 89.7196 205.811 89.7926 205.561 89.7926H203.665V97.0426C203.665 97.2926 203.582 97.5113 203.415 97.6884C203.249 97.8707 203.025 97.9592 202.749 97.9592C202.499 97.9592 202.28 97.8707 202.103 97.6884C201.936 97.5113 201.853 97.2926 201.853 97.0426V89.7926H200.686C200.436 89.7926 200.228 89.7196 200.061 89.5634C199.905 89.4124 199.832 89.2196 199.832 88.9801C199.832 88.7457 199.905 88.553 200.061 88.3967C200.228 88.2301 200.436 88.1467 200.686 88.1467H201.853V86.8134C201.853 85.928 202.134 85.2196 202.707 84.6884C203.29 84.1624 204.103 83.8967 205.145 83.8967C205.572 83.8967 205.957 83.9801 206.29 84.1467C206.624 84.303 206.79 84.5321 206.79 84.8342C206.79 85.0842 206.712 85.2926 206.561 85.4592C206.405 85.6155 206.233 85.6884 206.04 85.6884C205.983 85.6884 205.843 85.6624 205.624 85.6051C205.343 85.5374 205.103 85.5009 204.895 85.5009Z" fill="black"/>
<path d="M216.108 89.751V95.4176C216.108 96.0583 216.389 96.376 216.962 96.376C217.045 96.376 217.16 96.3551 217.316 96.3135C217.467 96.2718 217.592 96.251 217.691 96.251C217.858 96.251 217.993 96.3239 218.108 96.4593C218.217 96.5999 218.274 96.7718 218.274 96.9801C218.274 97.2614 218.118 97.4958 217.816 97.6885C217.509 97.8708 217.17 97.9593 216.795 97.9593C216.379 97.9593 215.988 97.9176 215.629 97.8343C215.28 97.7406 214.967 97.5114 214.691 97.1468C214.425 96.7874 214.295 96.2406 214.295 95.501V89.751H213.191C212.952 89.751 212.754 89.6781 212.587 89.5218C212.431 89.3551 212.358 89.1468 212.358 88.8968C212.358 88.6624 212.431 88.4697 212.587 88.3135C212.754 88.1624 212.952 88.0843 213.191 88.0843H214.295V86.4801C214.295 86.2301 214.379 86.0166 214.545 85.8343C214.722 85.6572 214.946 85.5635 215.212 85.5635C215.462 85.5635 215.67 85.6572 215.837 85.8343C216.014 86.0166 216.108 86.2301 216.108 86.4801V88.0843H217.691C217.925 88.0843 218.118 88.1676 218.274 88.3343C218.441 88.4906 218.524 88.6833 218.524 88.9176C218.524 89.1676 218.441 89.3708 218.274 89.5218C218.118 89.6781 217.925 89.751 217.691 89.751H216.108Z" fill="black"/>
<path d="M226.63 97.9384C226.323 97.9384 226.089 97.8551 225.922 97.6884C225.766 97.5217 225.693 97.2821 225.693 96.9592V96.6051C225.693 96.303 225.766 96.0634 225.922 95.8967C226.089 95.7301 226.323 95.6467 226.63 95.6467H226.818C227.135 95.6467 227.37 95.7301 227.526 95.8967C227.693 96.0634 227.776 96.303 227.776 96.6051V96.9592C227.776 97.6155 227.453 97.9384 226.818 97.9384H226.63Z" fill="black"/>
</svg>
