<svg xmlns="http://www.w3.org/2000/svg" xmlns:xlink="http://www.w3.org/1999/xlink" width="500" zoomAndPan="magnify" viewBox="0 0 375 374.999991" height="500" preserveAspectRatio="xMidYMid meet" version="1.0"><defs><g/></defs><rect x="-37.5" width="450" fill="#ffffff" y="-37.499999" height="449.999989" fill-opacity="1"/><rect x="-37.5" width="450" fill="#ffffff" y="-37.499999" height="449.999989" fill-opacity="1"/><g fill="#a64d79" fill-opacity="1"><g transform="translate(41.46455, 195.234875)"><g><path d="M 52.390625 -30.03125 L 52.390625 -18.390625 C 51.003906 -12.023438 47.96875 -7.207031 43.28125 -3.9375 C 38.601562 -0.664062 33.382812 0.96875 27.625 0.96875 C 20.382812 0.96875 14.21875 -1.738281 9.125 -7.15625 C 4.039062 -12.570312 1.5 -19.113281 1.5 -26.78125 C 1.5 -34.582031 3.988281 -41.164062 8.96875 -46.53125 C 13.945312 -51.90625 20.164062 -54.59375 27.625 -54.59375 C 36.332031 -54.59375 43.222656 -51.539062 48.296875 -45.4375 L 40.296875 -36.65625 C 37.441406 -41.25 33.457031 -43.546875 28.34375 -43.546875 C 24.570312 -43.546875 21.351562 -41.910156 18.6875 -38.640625 C 16.019531 -35.367188 14.6875 -31.414062 14.6875 -26.78125 C 14.6875 -22.226562 16.019531 -18.335938 18.6875 -15.109375 C 21.351562 -11.878906 24.570312 -10.265625 28.34375 -10.265625 C 31.457031 -10.265625 34.171875 -11.207031 36.484375 -13.09375 C 38.804688 -14.976562 39.96875 -17.484375 39.96875 -20.609375 L 27.625 -20.609375 L 27.625 -30.03125 Z M 52.390625 -30.03125 "/></g></g></g><g fill="#a64d79" fill-opacity="1"><g transform="translate(89.233159, 195.234875)"><g><path d="M 3.90625 0 L 3.90625 -33.34375 L 15.40625 -33.34375 L 15.40625 -28.53125 L 15.53125 -28.53125 C 15.625 -28.707031 15.765625 -28.925781 15.953125 -29.1875 C 16.148438 -29.445312 16.570312 -29.898438 17.21875 -30.546875 C 17.875 -31.203125 18.566406 -31.785156 19.296875 -32.296875 C 20.035156 -32.816406 20.988281 -33.28125 22.15625 -33.6875 C 23.332031 -34.101562 24.523438 -34.3125 25.734375 -34.3125 C 26.992188 -34.3125 28.226562 -34.140625 29.4375 -33.796875 C 30.65625 -33.453125 31.546875 -33.109375 32.109375 -32.765625 L 33.015625 -32.234375 L 28.203125 -22.484375 C 26.773438 -23.703125 24.785156 -24.3125 22.234375 -24.3125 C 20.847656 -24.3125 19.65625 -24.003906 18.65625 -23.390625 C 17.65625 -22.785156 16.945312 -22.050781 16.53125 -21.1875 C 16.125 -20.320312 15.832031 -19.582031 15.65625 -18.96875 C 15.488281 -18.363281 15.40625 -17.890625 15.40625 -17.546875 L 15.40625 0 Z M 3.90625 0 "/></g></g></g><g fill="#a64d79" fill-opacity="1"><g transform="translate(115.489326, 195.234875)"><g><path d="M 7.046875 -3.96875 C 3.347656 -7.257812 1.5 -11.484375 1.5 -16.640625 C 1.5 -21.796875 3.425781 -26.03125 7.28125 -29.34375 C 11.132812 -32.65625 15.898438 -34.3125 21.578125 -34.3125 C 27.171875 -34.3125 31.882812 -32.644531 35.71875 -29.3125 C 39.550781 -25.976562 41.46875 -21.753906 41.46875 -16.640625 C 41.46875 -11.523438 39.59375 -7.3125 35.84375 -4 C 32.09375 -0.6875 27.335938 0.96875 21.578125 0.96875 C 15.597656 0.96875 10.753906 -0.675781 7.046875 -3.96875 Z M 15.953125 -22.28125 C 14.460938 -20.8125 13.71875 -18.925781 13.71875 -16.625 C 13.71875 -14.332031 14.429688 -12.460938 15.859375 -11.015625 C 17.285156 -9.566406 19.171875 -8.84375 21.515625 -8.84375 C 23.765625 -8.84375 25.613281 -9.578125 27.0625 -11.046875 C 28.519531 -12.523438 29.25 -14.390625 29.25 -16.640625 C 29.25 -18.929688 28.5 -20.8125 27 -22.28125 C 25.507812 -23.757812 23.679688 -24.5 21.515625 -24.5 C 19.304688 -24.5 17.453125 -23.757812 15.953125 -22.28125 Z M 15.953125 -22.28125 "/></g></g></g><g fill="#a64d79" fill-opacity="1"><g transform="translate(152.33923, 195.234875)"><g><path d="M 14.75 -33.34375 L 14.75 -17.484375 C 14.75 -14.191406 15.25 -11.851562 16.25 -10.46875 C 17.25 -9.082031 18.9375 -8.390625 21.3125 -8.390625 C 23.695312 -8.390625 25.390625 -9.082031 26.390625 -10.46875 C 27.390625 -11.851562 27.890625 -14.191406 27.890625 -17.484375 L 27.890625 -33.34375 L 39.390625 -33.34375 L 39.390625 -14.6875 C 39.390625 -9.144531 37.945312 -5.148438 35.0625 -2.703125 C 32.1875 -0.253906 27.601562 0.96875 21.3125 0.96875 C 15.03125 0.96875 10.445312 -0.253906 7.5625 -2.703125 C 4.6875 -5.148438 3.25 -9.144531 3.25 -14.6875 L 3.25 -33.34375 Z M 14.75 -33.34375 "/></g></g></g><g fill="#a64d79" fill-opacity="1"><g transform="translate(188.86418, 195.234875)"><g><path d="M 38.21875 -29.203125 C 41.34375 -25.804688 42.90625 -21.640625 42.90625 -16.703125 C 42.90625 -11.765625 41.34375 -7.582031 38.21875 -4.15625 C 35.101562 -0.738281 31.140625 0.96875 26.328125 0.96875 C 21.898438 0.96875 18.257812 -0.414062 15.40625 -3.1875 L 15.40625 16.90625 L 3.90625 16.90625 L 3.90625 -33.34375 L 15.28125 -33.34375 L 15.28125 -29.578125 L 15.40625 -29.578125 C 18.257812 -32.734375 21.898438 -34.3125 26.328125 -34.3125 C 31.140625 -34.3125 35.101562 -32.609375 38.21875 -29.203125 Z M 28.4375 -11.046875 C 29.9375 -12.523438 30.6875 -14.410156 30.6875 -16.703125 C 30.6875 -19.003906 29.96875 -20.878906 28.53125 -22.328125 C 27.101562 -23.773438 25.21875 -24.5 22.875 -24.5 C 20.625 -24.5 18.769531 -23.757812 17.3125 -22.28125 C 15.863281 -20.8125 15.140625 -18.953125 15.140625 -16.703125 C 15.140625 -14.410156 15.882812 -12.523438 17.375 -11.046875 C 18.875 -9.578125 20.707031 -8.84375 22.875 -8.84375 C 25.082031 -8.84375 26.9375 -9.578125 28.4375 -11.046875 Z M 28.4375 -11.046875 "/></g></g></g><g fill="#a64d79" fill-opacity="1"><g transform="translate(227.143921, 195.234875)"><g><path d="M 37.640625 -15.078125 L 13.453125 -15.078125 C 13.453125 -12.734375 14.207031 -11 15.71875 -9.875 C 17.238281 -8.75 18.890625 -8.1875 20.671875 -8.1875 C 22.535156 -8.1875 24.007812 -8.4375 25.09375 -8.9375 C 26.175781 -9.4375 27.410156 -10.421875 28.796875 -11.890625 L 37.109375 -7.734375 C 33.648438 -1.929688 27.890625 0.96875 19.828125 0.96875 C 14.796875 0.96875 10.484375 -0.75 6.890625 -4.1875 C 3.296875 -7.632812 1.5 -11.785156 1.5 -16.640625 C 1.5 -21.492188 3.296875 -25.648438 6.890625 -29.109375 C 10.484375 -32.578125 14.796875 -34.3125 19.828125 -34.3125 C 25.109375 -34.3125 29.40625 -32.785156 32.71875 -29.734375 C 36.039062 -26.679688 37.703125 -22.316406 37.703125 -16.640625 C 37.703125 -15.859375 37.679688 -15.335938 37.640625 -15.078125 Z M 13.78125 -21.453125 L 26.453125 -21.453125 C 26.191406 -23.179688 25.507812 -24.507812 24.40625 -25.4375 C 23.300781 -26.375 21.882812 -26.84375 20.15625 -26.84375 C 18.25 -26.84375 16.726562 -26.34375 15.59375 -25.34375 C 14.46875 -24.351562 13.863281 -23.054688 13.78125 -21.453125 Z M 13.78125 -21.453125 "/></g></g></g><g fill="#a64d79" fill-opacity="1"><g transform="translate(260.224279, 195.234875)"><g><path d="M 3.90625 0 L 3.90625 -33.34375 L 15.40625 -33.34375 L 15.40625 -28.53125 L 15.53125 -28.53125 C 15.625 -28.707031 15.765625 -28.925781 15.953125 -29.1875 C 16.148438 -29.445312 16.570312 -29.898438 17.21875 -30.546875 C 17.875 -31.203125 18.566406 -31.785156 19.296875 -32.296875 C 20.035156 -32.816406 20.988281 -33.28125 22.15625 -33.6875 C 23.332031 -34.101562 24.523438 -34.3125 25.734375 -34.3125 C 26.992188 -34.3125 28.226562 -34.140625 29.4375 -33.796875 C 30.65625 -33.453125 31.546875 -33.109375 32.109375 -32.765625 L 33.015625 -32.234375 L 28.203125 -22.484375 C 26.773438 -23.703125 24.785156 -24.3125 22.234375 -24.3125 C 20.847656 -24.3125 19.65625 -24.003906 18.65625 -23.390625 C 17.65625 -22.785156 16.945312 -22.050781 16.53125 -21.1875 C 16.125 -20.320312 15.832031 -19.582031 15.65625 -18.96875 C 15.488281 -18.363281 15.40625 -17.890625 15.40625 -17.546875 L 15.40625 0 Z M 3.90625 0 "/></g></g></g><g fill="#a64d79" fill-opacity="1"><g transform="translate(286.480434, 195.234875)"><g><path d="M 6.171875 -4.125 C 3.054688 -7.53125 1.5 -11.703125 1.5 -16.640625 C 1.5 -21.578125 3.054688 -25.753906 6.171875 -29.171875 C 9.296875 -32.597656 13.257812 -34.3125 18.0625 -34.3125 C 22.488281 -34.3125 26.128906 -32.925781 28.984375 -30.15625 L 28.984375 -33.34375 L 40.5 -33.34375 L 40.5 0 L 29.125 0 L 29.125 -3.765625 L 28.984375 -3.765625 C 26.128906 -0.609375 22.488281 0.96875 18.0625 0.96875 C 13.257812 0.96875 9.296875 -0.726562 6.171875 -4.125 Z M 15.953125 -22.28125 C 14.460938 -20.8125 13.71875 -18.925781 13.71875 -16.625 C 13.71875 -14.332031 14.429688 -12.460938 15.859375 -11.015625 C 17.285156 -9.566406 19.171875 -8.84375 21.515625 -8.84375 C 23.765625 -8.84375 25.613281 -9.578125 27.0625 -11.046875 C 28.519531 -12.523438 29.25 -14.390625 29.25 -16.640625 C 29.25 -18.929688 28.5 -20.8125 27 -22.28125 C 25.507812 -23.757812 23.679688 -24.5 21.515625 -24.5 C 19.304688 -24.5 17.453125 -23.757812 15.953125 -22.28125 Z M 15.953125 -22.28125 "/></g></g></g></svg>